<svg xmlns="http://www.w3.org/2000/svg" viewBox="0 0 128 128" width="128" height="128">
  <defs>
    <linearGradient id="bg" x1="0" y1="0" x2="128" y2="128" gradientUnits="userSpaceOnUse">
      <stop offset="0%" stop-color="#667eea"/>
      <stop offset="50%" stop-color="#5A67D8"/>
      <stop offset="100%" stop-color="#4C51BF"/>
    </linearGradient>
    <linearGradient id="up" x1="0" y1="1" x2="0" y2="0" gradientUnits="objectBoundingBox">
      <stop offset="0%" stop-color="#F56565"/>
      <stop offset="100%" stop-color="#FC8181"/>
    </linearGradient>
    <linearGradient id="down" x1="0" y1="0" x2="0" y2="1" gradientUnits="objectBoundingBox">
      <stop offset="0%" stop-color="#48BB78"/>
      <stop offset="100%" stop-color="#68D391"/>
    </linearGradient>
  </defs>
  <rect width="128" height="128" rx="28" fill="url(#bg)"/>
  <g opacity="0.08" stroke="#fff" stroke-width="0.5">
    <line x1="0" y1="32" x2="128" y2="32"/><line x1="0" y1="64" x2="128" y2="64"/><line x1="0" y1="96" x2="128" y2="96"/>
    <line x1="32" y1="0" x2="32" y2="128"/><line x1="64" y1="0" x2="64" y2="128"/><line x1="96" y1="0" x2="96" y2="128"/>
  </g>
  <rect x="16" y="34" width="9" height="28" rx="1.5" fill="url(#down)"/>
  <line x1="20.5" y1="26" x2="20.5" y2="66" stroke="#48BB78" stroke-width="1.8" stroke-linecap="round"/>
  <rect x="36" y="40" width="9" height="24" rx="1.5" fill="url(#up)"/>
  <line x1="40.5" y1="32" x2="40.5" y2="68" stroke="#F56565" stroke-width="1.8" stroke-linecap="round"/>
  <rect x="56" y="26" width="9" height="30" rx="1.5" fill="url(#down)"/>
  <line x1="60.5" y1="18" x2="60.5" y2="60" stroke="#48BB78" stroke-width="1.8" stroke-linecap="round"/>
  <rect x="76" y="30" width="9" height="34" rx="1.5" fill="url(#up)"/>
  <line x1="80.5" y1="22" x2="80.5" y2="68" stroke="#F56565" stroke-width="1.8" stroke-linecap="round"/>
  <rect x="96" y="42" width="9" height="22" rx="1.5" fill="url(#down)"/>
  <line x1="100.5" y1="36" x2="100.5" y2="68" stroke="#48BB78" stroke-width="1.8" stroke-linecap="round"/>
  <polyline points="20,52 40,56 60,38 80,44 100,50" fill="none" stroke="#ECC94B" stroke-width="2.5" stroke-linecap="round" stroke-linejoin="round"/>
  <g opacity="0.7">
    <rect x="16" y="88" width="9" height="20" rx="1.5" fill="#FC8181"/>
    <rect x="36" y="82" width="9" height="26" rx="1.5" fill="#FC8181"/>
    <rect x="56" y="86" width="9" height="22" rx="1.5" fill="#68D391"/>
    <rect x="76" y="80" width="9" height="28" rx="1.5" fill="#FC8181"/>
    <rect x="96" y="84" width="9" height="24" rx="1.5" fill="#68D391"/>
  </g>
</svg>
